<?xml version="1.0" encoding="utf-8"?>
<!-- Generator: Adobe Illustrator 23.0.6, SVG Export Plug-In . SVG Version: 6.00 Build 0)  -->
<svg version="1.1" id="Layer_1" xmlns="http://www.w3.org/2000/svg" xmlns:xlink="http://www.w3.org/1999/xlink" x="0px" y="0px"
	 viewBox="0 0 2709.5942 1056.2347" style="enable-background:new 0 0 2709.5942 1056.2347;" xml:space="preserve">
<style type="text/css">
	.st0{fill:#E60F3A;}
</style>
<g transform="scale(7.334963325183374) translate(10, 10)">
	<g id="SvgjsG1941">
	</g>
	<g id="SvgjsG1942" transform="matrix(9.600000000000001,0,0,9.600000000000001,10.39999542236328,-38.00000000000001)">
		<path class="st0" d="M0.455,13.1167c-0.24,0.52-0.5,1.04-0.8,1.6h11.54l1.6,3.2h-0.2l-1.5-3h-1.78l1.5,3h-0.2l-1.5-3h-7.58
			l-1.48,3h-0.22c0.54-1.1,1.04-2.1,1.48-3h-1.76c-0.46,0.92-0.94,1.9-1.48,3h-0.2l7.46-15l0.12,0.22c-0.96,1.86-1,1.94-4.9,9.78
			h1.76c3.04-6.08,3.12-6.18,4-8.02l4.08,8.22H0.455L0.455,13.1167z M5.335,7.3167l-2.8,5.6h5.58L5.335,7.3167z M6.315,5.3367
			l-0.88,1.76l2.88,5.82h1.78L6.315,5.3367z M14.995,11.4167v6.5h-0.2v-13.2h5c1.36,0,2.46,1.1,2.46,2.46c0,1.08-0.7,2-1.68,2.32
			c0.68,0.12,1.28,0.38,1.8,0.78c0.9-0.74,1.48-1.86,1.48-3.1c0-2.24-1.82-4.06-4.06-4.06h-5v-0.2h5c2.36,0,4.26,1.9,4.26,4.26
			c0,1.3-0.6,2.46-1.52,3.22c0.92,0.78,1.52,1.96,1.52,3.28c0,2.36-1.9,4.24-4.26,4.24h-3.2v-6.5H14.995L14.995,11.4167z
			 M14.995,9.6167v1.6h4.8c1.36,0,2.46,1.1,2.46,2.46c0,1.36-1.1,2.44-2.46,2.44h-3v1.6h3c2.24,0,4.06-1.8,4.06-4.04
			c0-2.22-1.78-4.02-3.96-4.06L14.995,9.6167L14.995,9.6167z M22.055,13.6767c0-1.24-1.02-2.26-2.26-2.26h-3v4.5h3
			C21.035,15.9167,22.055,14.9167,22.055,13.6767z M22.055,7.1767c0-1.24-1.02-2.26-2.26-2.26h-3v4.5h3.08
			C21.075,9.3567,22.055,8.3767,22.055,7.1767z M14.995,4.9167v4.5h1.6v-4.5H14.995z M26.255,4.9167v13h-0.2v-13.2h10.3v0.2h-8.3
			v4.5h6.5v0.2h-6.5v1.6h6.5v0.2h-6.5v6.5h-0.2v-13H26.255z M26.055,3.1167v-0.2h10.3v0.2H26.055z"/>
	</g>
</g>
</svg>
