<svg id="Layer_1" data-name="Layer 1" xmlns="http://www.w3.org/2000/svg" viewBox="0 0 2746.269 1893.4756"><defs><style>.cls-1{fill:#e60f3a;}</style></defs><title>logo</title><g id="SvgjsG1942"><path class="cls-1" d="M401.7212,864.9389c-16.9,36.6161-35.2078,73.2323-56.3325,112.665h812.5966l112.6651,225.33h-14.0831L1150.9438,991.6871h-125.34l105.6234,211.2469h-14.0831L1011.5208,991.6871H477.77L373.555,1202.934H358.0636c38.0244-77.4572,73.2323-147.8729,104.2151-211.2469H338.3472c-32.3912,64.7824-66.1907,133.79-104.2152,211.2469H220.0489L745.35,146.6993l8.45,15.4914c-67.5991,130.9731-70.4157,136.6064-345.0367,688.6651H532.6944C746.758,422.7286,752.3912,415.687,814.357,286.1222l287.2958,578.8167H401.7212ZM745.35,456.5281,548.1858,850.8558H941.1051Zm69.0073-139.4229L752.3912,441.0367l202.797,409.8191h125.34Zm611.208,428.1271V1202.934h-14.0832V273.4475H1763.56a172.6882,172.6882,0,0,1,54.9243,336.5868q71.824,12.6747,126.7481,54.9241c63.3741-52.1075,104.2151-130.973,104.2151-218.2884,0-157.7311-128.1564-285.8876-285.8875-285.8876H1411.4817V146.6993H1763.56A299.318,299.318,0,0,1,2063.5306,446.67a294.0205,294.0205,0,0,1-107.0318,226.7384,302.801,302.801,0,0,1,107.0318,230.9633c0,166.181-133.79,298.5623-299.9707,298.5623H1538.23V745.2323H1425.5649Zm0-126.7482V731.1492H1763.56a173.0982,173.0982,0,0,1,173.2224,173.2225c0,95.7652-77.4572,171.8142-173.2224,171.8142h-211.247V1188.851H1763.56c157.731,0,285.8875-126.7481,285.8875-284.4792,0-156.3228-125.34-283.0709-278.8461-285.8876H1425.5649Zm497.1344,285.8876c0-87.3154-71.824-159.1394-159.1394-159.1394H1552.313v316.87H1763.56C1850.8753,1062.1027,1922.6993,991.6871,1922.6993,904.3717Zm0-457.7017c0-87.3154-71.824-159.1394-159.1394-159.1394H1552.313v316.87h216.88C1853.692,600.176,1922.6993,531.1687,1922.6993,446.67ZM1425.5649,287.5306v316.87H1538.23v-316.87Zm792.88,0V1202.934h-14.0832V273.4475h725.2813v14.0831h-584.45v316.87H2802.895v14.0831H2345.1932V731.1492H2802.895v14.0831H2345.1932V1202.934H2331.11V287.5306Zm-14.0831-126.7482V146.6993h725.2812v14.0831Z" transform="translate(-183.3741 -146.6993)"/></g><g id="SvgjsG1943"><path d="M339.8758,1429.1l93.7991,377.2355H343.954l-22.94-98.3871H296.0349l-22.94,98.3871H183.3741L276.6634,1429.1Zm-7.1369,264.0648,22.94,98.3871h58.6244l-85.6426-347.6683H288.3883L202.7456,1791.552H261.37l22.94-98.3871Zm-29.5671-164.6581h14.7836l16.8226,126.9346H284.31Zm-1.5293,112.1511h15.8031l-7.1369-74.4276Zm192.8488,165.6777v-90.2307c.51-7.6466.51-16.8226.51-27.528V1428.59h76.4667L611.74,1538.1925V1428.59h82.584v377.7452H621.426L578.0948,1686.028v120.3075H494.4913Zm15.8031-15.8032h51.9974V1641.1676l15.2933-2.5489,55.056,151.9137h46.39V1443.8836H627.5433v138.66L612.25,1585.092l-51.4875-141.2084H510.8042v244.6933c0,10.7053,0,20.3911-.51,28.5475v73.408Zm311.6271,15.8032V1624.345L765.846,1497.41v-1.02a.4993.4993,0,0,1-.51-.51,30.0665,30.0665,0,0,0-2.0391-4.0782L734.75,1428.0806H826l16.8226,38.2333,1.5294,4.0783,8.6662,18.352,1.02,3.0586,8.6662,19.8813,8.6662-19.8813,28.5476-63.7222h94.8186l-27.528,52.5071v2.0391l-5.0978,7.6467-3.0586,7.6467v.51l-54.0364,126.9346v180.971Zm15.8031-15.8032h51.4875V1622.3058l55.056-130.503c1.5293-3.0587,2.5489-6.1174,4.0782-8.6663v-.51l3.5685-4.588v-1.5294l16.8226-32.6258H910.113l-23.96,54.5463-22.94,53.0168-23.45-53.0168-1.5293-3.0587L830.0779,1476h-.51a2.6485,2.6485,0,0,0-1.02-2.0391v-.51l-12.7445-29.5671h-57.095l19.3715,41.8018,1.5293,3.0587c0,1.02.51,1.5293.51,2.0391l.51.51v.51l57.0951,128.9737Zm395.23-158.031c6.1174,14.7836,9.176,31.6062,9.176,49.4485a154.6939,154.6939,0,0,1-8.1564,49.4484c-6.1174,15.2933-14.2738,29.0573-25.9987,40.2724a114.8665,114.8665,0,0,1-36.7039,25.9987,111.43,111.43,0,0,1-43.3311,8.6662h-92.78V1429.1h77.996c17.8422,0,34.1551,3.0587,48.4289,8.6662l1.02.51c15.803,7.1369,28.0377,16.3129,37.2137,28.0378l.51,1.0195c7.6466,10.7054,13.2542,20.9009,16.3129,31.6062a118.0126,118.0126,0,0,1,5.6075,35.1747c0,21.4107-5.0978,40.7822-14.2738,57.0951a22.1657,22.1657,0,0,1,3.0587,3.5684c9.176,9.6858,16.3128,21.92,21.92,37.7236Zm-13.2541,93.2893a121.8439,121.8439,0,0,0,7.6466-43.8408c0-16.3129-2.5488-31.0965-8.1564-43.8409v-.51c-5.0978-13.764-11.2151-24.4693-18.8618-32.6258a93.6736,93.6736,0,0,0-7.1369-7.1368l-4.588-4.5881,3.5685-5.0977a21.581,21.581,0,0,1,2.5488-3.5685l.51-1.02c8.1564-13.764,12.2346-30.5867,12.2346-49.4485a89.6129,89.6129,0,0,0-5.0978-30.5866A79.25,79.25,0,0,0,1188.0946,1476v-.51a75.7409,75.7409,0,0,0-31.6062-23.45l-.51-.51c-12.7444-5.0977-26.5085-7.6466-42.8213-7.6466h-63.2124V1791.552h77.996a94.1637,94.1637,0,0,0,37.7235-7.6467,104.6637,104.6637,0,0,0,32.1159-22.43,95.28,95.28,0,0,0,21.9205-35.6844Zm-73.408-165.6777c-5.0978,5.6076-14.7836,8.6662-28.0377,8.6662h-15.8031v-69.84l7.1368.51h12.2347c8.6662,0,16.3129,3.0586,23.45,9.176l.51.51c6.1174,5.6075,9.176,12.7444,9.176,21.92,0,13.764-3.0586,23.45-8.6662,29.0573Zm-29.0573-45.88v39.7627h1.02c8.6662,0,15.2933-1.5294,17.8422-4.0782,2.5488-3.0587,4.0782-9.6858,4.0782-18.8618a14.2346,14.2346,0,0,0-4.588-11.2151c-4.588-4.0782-8.6662-5.6076-13.764-5.6076Zm42.3115,124.3857c10.1956,10.1956,15.2933,22.94,15.2933,40.2725,0,21.4106-4.588,36.1942-13.764,44.86h-.51c-10.1956,9.176-21.9205,13.2542-36.1942,13.2542h-21.92v-113.68h22.94q16.058,0,33.6453,15.2933Zm-8.6662,73.9178c3.5684-3.0587,9.176-11.7249,9.176-33.6453,0-13.2543-3.0586-21.92-10.7053-29.0573-9.176-7.6467-16.8226-11.2152-23.9595-11.2152h-8.1564v83.6036h7.1368c10.7053,0,18.8618-3.0587,26.5085-9.6858Zm293.7848,98.8969c-18.3521,0-36.704-4.0782-55.5658-12.2347-17.8422-7.6466-34.1551-18.352-50.9778-34.1551l-.51-.51c-16.3128-15.8031-29.5671-36.704-39.2529-62.7026-9.6858-25.4889-14.2738-54.0364-14.2738-84.6231,0-31.0964,5.0978-59.6439,14.7836-85.1328,10.1956-25.9987,23.45-46.9,40.7822-62.7027a199.6827,199.6827,0,0,1,49.4484-34.1551h1.02c18.352-8.1564,36.1941-12.2346,54.5462-12.2346s36.7039,4.0782,55.0559,12.2346h.51c17.3325,7.6467,33.6453,19.3716,49.4484,34.1551,17.3325,15.8031,30.0769,36.1942,40.7822,62.1929,10.1956,25.9987,14.7836,54.0364,14.7836,85.6426a258.61,258.61,0,0,1-9.176,69.33v.51c-6.6271,21.92-15.2933,40.7822-25.9987,55.5657l-.51,1.02a178.744,178.744,0,0,1-36.7039,36.704c-14.7836,11.2151-29.5671,19.3716-43.841,23.45a139.9682,139.9682,0,0,1-44.3506,7.6466Zm0-15.8032a119.761,119.761,0,0,0,39.2528-6.6271c13.2543-4.0782,26.5085-11.2151,39.2529-20.9008a164.7281,164.7281,0,0,0,33.6454-34.1551l.51-.51c9.6859-13.7641,17.3325-30.5867,23.45-50.9778,6.1173-20.9009,8.6662-42.8213,8.6662-65.2515,0-29.5671-4.588-55.5658-13.764-79.5253-9.6858-24.4693-21.4107-42.8213-36.704-57.0951-14.2738-13.2542-29.5671-23.9595-45.37-31.0964q-24.4693-10.7053-48.9387-10.7054c-15.803,0-32.1159,3.5685-48.4289,10.7054h-.51a165.8335,165.8335,0,0,0-45.37,31.6062c-15.2933,14.2737-27.5281,32.6257-36.704,57.095-9.176,23.45-13.764,49.9583-13.764,79.0156s4.0782,55.5657,13.2542,79.0155c8.6663,23.45,20.9009,42.8213,35.6845,57.0951v.51c15.2933,13.764,30.5867,23.96,46.39,30.5867,16.8226,7.6466,33.1355,11.2151,49.4483,11.2151Zm0-54.0364c-12.7445,0-24.4694-2.5489-35.1747-8.6662a92.4174,92.4174,0,0,1-30.0769-25.4889c-19.3715-24.4693-28.5475-53.5267-28.5475-90.2307,0-18.352,2.0391-35.1746,7.1368-50.4679a117.9075,117.9075,0,0,1,21.4107-40.2725c9.176-11.7248,19.3715-20.3911,30.0769-25.9986a75.9126,75.9126,0,0,1,35.1747-8.1565c13.2542,0,25.4888,2.5489,36.1941,8.6663,10.7053,5.6075,20.9009,14.2737,29.5671,25.4888,19.3715,23.96,29.0573,54.5462,29.0573,90.74,0,36.704-9.6858,66.2711-29.0573,90.74a100.7327,100.7327,0,0,1-30.5867,25.4889c-10.7053,5.6075-22.43,8.1564-35.1746,8.1564Zm0-15.8031a64.4766,64.4766,0,0,0,28.0377-6.1173c9.176-4.588,17.3324-11.7249,25.4889-21.92,17.3324-21.4106,25.4888-47.919,25.4888-80.5448s-8.6662-60.1538-25.4888-80.5449v-.51q-11.47-14.5285-24.4693-21.4106a62.4093,62.4093,0,0,0-29.0573-6.6271,60.7037,60.7037,0,0,0-27.5281,6.1173c-9.176,4.588-17.8422,12.2346-25.4889,21.92a117.3606,117.3606,0,0,0-18.8618,35.1747q-6.1173,20.646-6.1174,45.88c0,32.6258,8.1565,59.1342,24.9791,80.0351,8.1565,10.1955,16.3129,17.3324,24.9791,21.9205a58.3374,58.3374,0,0,0,28.0378,6.6271ZM1900.05,1554.5054a270.1679,270.1679,0,0,1,7.1369,62.1929c0,27.0182-3.0588,51.4875-9.1761,72.8982-5.6075,21.92-14.2737,40.7822-24.4693,55.5658l-1.0195,1.02c-11.2152,14.2737-22.94,25.9986-36.1942,35.1746l-1.02.51v.51c-14.7836,8.6662-28.5476,15.2933-41.8017,18.8617l-1.02.51a177.4231,177.4231,0,0,1-40.2725,4.588H1646.1809V1427.5709h87.6817a173.3987,173.3987,0,0,1,22.94,1.5293,133.3556,133.3556,0,0,1,29.5671,5.0978,168.4488,168.4488,0,0,1,33.6454,12.2346,157.4161,157.4161,0,0,1,32.6258,22.94q16.0579,13.764,29.0573,35.1747l.51,1.02a184.2359,184.2359,0,0,1,17.8421,48.9387Zm-16.8228,131.0129c5.0977-19.8814,8.1565-42.8213,8.1565-68.82,0-20.9009-2.0392-40.7822-6.6272-58.6244-4.0783-17.3325-9.176-32.116-16.3128-44.86l-.51-.51c-7.6468-12.7444-16.3129-23.45-25.9986-31.6062-9.176-8.1564-18.8617-15.2933-29.0573-20.3911-8.6661-4.588-18.352-8.1564-30.5867-11.2151a216.82,216.82,0,0,0-26.5085-5.0977h-.51c-7.6467-.51-14.2739-1.02-21.4107-1.02h-72.3884v347.1585h90.74a179.92,179.92,0,0,0,36.704-4.0782l.51-.51c11.7249-3.0586,23.9595-8.6662,37.2138-17.3324h.51a151.35,151.35,0,0,0,33.1356-32.116v-.51c9.6857-13.2542,17.3325-30.5867,22.94-50.468ZM1734.8822,1498.94c36.1941,0,61.683,9.176,78.5058,28.0378,17.3324,18.8617,25.9985,48.9386,25.9985,89.2111,0,17.3324-1.5292,33.1355-4.588,46.8995-3.0587,12.7444-6.6271,23.96-10.7052,32.6258h-.51a69.784,69.784,0,0,1-14.7836,19.3715,140.5262,140.5262,0,0,1-16.8227,12.2347h-.51a68.9228,68.9228,0,0,1-17.3324,5.6075l-1.02.51c-9.176,2.0391-13.2542,2.5489-14.2738,2.5489h-45.88V1498.94h21.9206Zm84.623,160.58a219.6678,219.6678,0,0,0,4.0784-43.3311c0-36.1942-7.1369-62.7026-21.92-79.0155-13.764-15.2934-35.6845-22.43-66.7808-22.43h-6.1174v205.95h15.8031c3.5684,0,8.6662,0,10.1956-.51h4.0782c.51,0,3.5684-.51,10.7053-2.0391l1.02-.51a66.7137,66.7137,0,0,0,14.2739-4.588,98.2673,98.2673,0,0,0,13.2542-9.6857,55.6323,55.6323,0,0,0,11.7248-14.7836A137.935,137.935,0,0,0,1819.5052,1659.52Zm199.9858,146.816V1624.345L1963.4156,1497.41v-1.02a.4993.4993,0,0,1-.51-.51,30.0453,30.0453,0,0,0-2.0392-4.0782l-28.5476-63.7222h91.25l16.8228,38.2333,1.5293,4.0783,8.6661,18.352,1.02,3.0586,8.6661,19.8813,8.6661-19.8813,28.5476-63.7222h94.8187l-27.528,52.5071v2.0391l-5.0977,7.6467-3.0588,7.6467v.51l-54.0365,126.9346v180.971H2019.491Zm15.8032-15.8032h51.4874V1622.3058l55.0561-130.503c1.5293-3.0587,2.5489-6.1174,4.0783-8.6663v-.51l3.5685-4.588v-1.5294l16.8227-32.6258h-58.6245l-23.96,54.5463-22.94,53.0168-23.45-53.0168-1.5292-3.0587L2027.6476,1476h-.51a2.6482,2.6482,0,0,0-1.02-2.0391v-.51l-12.7445-29.5671h-57.095l19.3716,41.8018,1.5293,3.0587c0,1.02.51,1.5293.51,2.0391l.51.51v.51l57.095,128.9737Zm197.4367,15.8032v-378.255h160.07l11.2152,85.6426h-88.1915v40.2724H2395.35v85.6427h-79.5254v166.6973Zm15.8032-15.8032h51.4874V1623.8352h79.5254V1569.289h-79.5254V1497.92h86.1524l-7.1369-54.0364H2248.5339v346.6488Zm216.2986,15.8032V1428.59h83.0938v377.7452Zm15.8032-15.8032h51.4875V1443.8837h-51.4875Zm192.8487,16.313V1513.7232h-64.7418l11.2152-85.1328h190.147l11.2152,85.1328h-64.7418v293.1222Zm15.8032-15.8032h51.4874V1498.43h62.7027l-7.1369-54.0364H2633.722l-7.1368,54.0364h62.7026Z" transform="translate(-183.3741 -146.6993)"/></g><g id="SvgjsG1944"><path class="cls-1" d="M712.4964,1923.77l31.99-.5025a46.39,46.39,0,0,1,15.074,2.3449,30.8466,30.8466,0,0,1,11.64,6.9507,31.9593,31.9593,0,0,1,7.4533,11.3055,40.771,40.771,0,0,1,2.68,15.2415q0,17.2514-10.0493,26.6307t-26.7982,9.3794H724.2206v43.0445a40.5579,40.5579,0,0,1-12.7292,0v-113.39Zm11.7242,10.0493v50.7491q3.35-.1675,8.4581-.1675h12.143a25.1906,25.1906,0,0,0,10.803-2.0936,18.878,18.878,0,0,0,7.1183-5.6109,22.2851,22.2851,0,0,0,3.8522-8.2069,40.61,40.61,0,0,0,1.1724-9.8819,36.56,36.56,0,0,0-1.1724-9.2119,19.2485,19.2485,0,0,0-11.3055-13.3153,27.7223,27.7223,0,0,0-11.473-2.0936H732.26Zm92.7887,87.0941-.1675,6.3646q5.6946-.3349,10.3843-.335H873.118a32.1421,32.1421,0,0,1-.335,5.36q-1.1724,5.8622-8.207,5.8621H811.8171a6.5647,6.5647,0,0,1-5.2759-2.2611,9.117,9.117,0,0,1-1.9261-6.1133V1924.7752l1.0049-1.0049h64.6507a33.3585,33.3585,0,0,1,.3349,5.2759,18.259,18.259,0,0,1-.8374,5.7783H816.8418l.1675,10.3843v29.6455l10.0493-.1675h34.67a34.2609,34.2609,0,0,1,.5025,5.6109,31.3426,31.3426,0,0,1-.5025,5.4434h-34.67q-6.3646,0-10.0493-.1675v35.34Zm82.9069-97.1434,33.8327-.5025q17.2514,0,26.7982,8.7094t9.5468,24.4534a32.172,32.172,0,0,1-5.8621,19.3449,29.468,29.468,0,0,1-16.0789,11.138q6.867,2.1774,11.2217,13.5666l8.7094,22.611a46.4873,46.4873,0,0,0,3.6848,7.6207,17.211,17.211,0,0,0,3.5172,4.271q-2.68,4.1871-8.8769,4.1872a7.561,7.561,0,0,1-5.4434-1.8424q-1.9262-1.8423-3.7685-6.5321l-9.7143-25.4582q-2.8473-7.537-6.7833-11.473t-11.6405-3.936H911.64v48.2367a39.7915,39.7915,0,0,1-6.532.5025,32.26,32.26,0,0,1-6.1971-.5025v-113.39ZM911.64,1933.82v45.3894q3.5172-.1674,8.6256-.2512t12.143-.0838a31.603,31.603,0,0,0,11.64-1.8423,20.5728,20.5728,0,0,0,7.4533-4.8572,17.0076,17.0076,0,0,0,4.02-7.1183,31.2489,31.2489,0,0,0,1.1724-8.6256,31.8792,31.8792,0,0,0-1.1724-8.7932,17.0082,17.0082,0,0,0-4.02-7.1183,19.58,19.58,0,0,0-7.6208-4.7734,34.9923,34.9923,0,0,0-11.9754-1.7586H919.8473l-8.2069-.1675Zm76.3748,93.7936a13.7543,13.7543,0,0,1,5.8621-10.2168q17.0838,11.5567,33.4977,11.5568,11.8917,0,18.7588-5.0247a16.1068,16.1068,0,0,0,6.867-13.7341q0-12.8966-17.7538-20.7686l-19.5962-8.5419Q993.04,1971.17,993.04,1952.7458a27.9771,27.9771,0,0,1,2.68-12.0592,30.0225,30.0225,0,0,1,7.4532-9.8818,35.5621,35.5621,0,0,1,11.473-6.6158,43.4862,43.4862,0,0,1,14.9065-2.4286q16.2463,0,33.1627,8.04a13.1661,13.1661,0,0,1-5.1921,10.7192,77.522,77.522,0,0,0-15.1578-6.0295,50.2815,50.2815,0,0,0-12.8128-1.8424,28.8145,28.8145,0,0,0-9.6306,1.5074,25.7073,25.7073,0,0,0-7.37,3.936,17.1452,17.1452,0,0,0-4.7734,5.6946,14.685,14.685,0,0,0-1.6749,6.7833q0,7.37,4.271,11.4729a38.2369,38.2369,0,0,0,11.9754,7.2858l18.9262,8.2069q24.9558,10.8868,24.9558,30.3155,0,14.5715-9.8818,23.4484t-30.65,8.8769a62.6572,62.6572,0,0,1-37.685-12.5617Zm110.8775-63.6456a57.0149,57.0149,0,0,0-1.0887,8.2907q-.2513,4.271-.2512,8.6256a116.7378,116.7378,0,0,0,1.1724,15.9952,55.8076,55.8076,0,0,0,4.5222,15.7439,31.666,31.666,0,0,0,9.5469,12.0592q6.197,4.7734,16.2463,4.7734a26.702,26.702,0,0,0,20.2662-8.4581,29.23,29.23,0,0,0,5.6108-8.7932,65.3859,65.3859,0,0,0,3.35-10.468,82.0677,82.0677,0,0,0,1.7586-10.8031q.5025-5.36.5025-10.0493a117.4649,117.4649,0,0,0-1.1724-15.9114,53.1346,53.1346,0,0,0-4.6059-15.7439,32.9415,32.9415,0,0,0-9.5469-11.9755q-6.1132-4.7734-16.1626-4.7734a27.8413,27.8413,0,0,0-12.8967,2.7636,25.9752,25.9752,0,0,0-8.7931,7.202,34.6912,34.6912,0,0,0-5.36,10.0493,89.1263,89.1263,0,0,0-3.0986,11.473Zm2.8473,66.493q-17.7539-15.744-17.7538-49.4092a93.6557,93.6557,0,0,1,2.9311-24.2021,55.8844,55.8844,0,0,1,8.6256-18.7587,39.2328,39.2328,0,0,1,14.1528-12.0592,42.3365,42.3365,0,0,1,19.3449-4.271q11.5567,0,20.0987,4.7734a41.7486,41.7486,0,0,1,14.1528,12.8967,57.25,57.25,0,0,1,8.2907,18.8424,99.0846,99.0846,0,0,1-.2512,46.8131,55.8865,55.8865,0,0,1-8.6257,18.7587,39.2328,39.2328,0,0,1-14.1528,12.0592,42.7225,42.7225,0,0,1-19.5124,4.271q-16.5815,0-27.3007-9.7143Zm177.0355-107.1928,1.005.8375v114.06a51.69,51.69,0,0,1-7.872.5025,55.1575,55.1575,0,0,1-8.04-.5025l-40.7-75.8723q-5.0247-9.3793-11.3893-23.1135h-.5024q1.0049,31.1529,1.0049,36.1776v62.8082a44.4539,44.4539,0,0,1-6.1971.5025,34.7051,34.7051,0,0,1-5.6946-.5025V1923.77a47.6955,47.6955,0,0,1,7.6207-.5025,54.4685,54.4685,0,0,1,7.9557.5025l40.7,75.8724q4.02,7.2019,11.7243,23.6159h.5024q-1.1724-21.4386-1.1724-38.1875v-53.4288q0-4.5222,1.34-6.4483t5.36-1.9262h4.3547Zm89.6064,85.0843-11.7242.1674h-22.4435l-11.7242-.1674-9.7144,29.98a24.2712,24.2712,0,0,1-5.36.5025,26.883,26.883,0,0,1-6.5321-.8375l-.3349-.5024,38.3549-113.7248a45.15,45.15,0,0,1,7.537-.5025,33.6072,33.6072,0,0,1,6.867.5025l38.3549,113.7248a12.4231,12.4231,0,0,1-6.7,1.6749q-4.02,0-5.6947-1.34t-2.8472-5.36Zm-42.2071-10.8868,9.7143-.1675H1355.15q.1674,0,4.1034.0837t5.6109.0838l-10.5518-31.8229q-6.3646-19.5962-8.5419-27.9706h-.8375q-3.1823,12.3942-5.6946,19.9312Zm113.7248,29.31h35.6751a22.5686,22.5686,0,0,1-.5025,5.5271q-1.005,5.8622-8.2069,5.8621h-46.8969a6.8834,6.8834,0,0,1-5.2758-2.2611,8.8918,8.8918,0,0,1-2.0936-6.2808v-105.35l1.0049-1.0049h5.0247q4.02,0,5.36,1.9261t1.34,6.4483v95.6361q7.537-.5025,14.5715-.5025Zm157.4393-66.828a35.83,35.83,0,0,0-1.4236-9.9656,24.2768,24.2768,0,0,0-4.69-8.8768,23.3209,23.3209,0,0,0-8.3744-6.2809,29.3533,29.3533,0,0,0-12.31-2.3448q-14.2365,0-22.0248,12.5616t-7.7882,35.6751q0,23.2809,8.04,35.7589t22.7784,12.4779q14.9066,0,30.148-13.2317a15.19,15.19,0,0,1,7.0345,8.3745,53.451,53.451,0,0,1-17.3351,11.64,54.6448,54.6448,0,0,1-21.8573,4.4385q-11.2217,0-19.2612-4.6059a37.4842,37.4842,0,0,1-13.1479-12.6454,59.0325,59.0325,0,0,1-7.537-18.675,101.7585,101.7585,0,0,1-2.4286-22.6947,91.6488,91.6488,0,0,1,3.35-26.1282,55.6326,55.6326,0,0,1,9.2119-18.675,37.9781,37.9781,0,0,1,30.65-14.99,47.7523,47.7523,0,0,1,16.4139,2.68,41.3,41.3,0,0,1,12.5616,7.0346,31.365,31.365,0,0,1,8.04,10.0493,25.9233,25.9233,0,0,1,2.8472,11.7242q0,7.5369-7.202,7.537a24.1365,24.1365,0,0,1-5.6946-.8375Zm45.222,4.02a57.0425,57.0425,0,0,0-1.0887,8.2907q-.2511,4.271-.2512,8.6256a116.7378,116.7378,0,0,0,1.1724,15.9952,55.8076,55.8076,0,0,0,4.5222,15.7439,31.6679,31.6679,0,0,0,9.5469,12.0592q6.197,4.7734,16.2464,4.7734a26.702,26.702,0,0,0,20.2661-8.4581,29.2323,29.2323,0,0,0,5.6109-8.7932,65.3957,65.3957,0,0,0,3.35-10.468,82.0847,82.0847,0,0,0,1.7587-10.8031q.5023-5.36.5024-10.0493a117.4649,117.4649,0,0,0-1.1724-15.9114,53.1347,53.1347,0,0,0-4.606-15.7439,32.9423,32.9423,0,0,0-9.5468-11.9755q-6.1132-4.7734-16.1627-4.7734a27.8412,27.8412,0,0,0-12.8966,2.7636,25.9766,25.9766,0,0,0-8.7932,7.202,34.6912,34.6912,0,0,0-5.36,10.0493,89.1588,89.1588,0,0,0-3.0986,11.473Zm2.8473,66.493q-17.7539-15.744-17.7539-49.4092a93.66,93.66,0,0,1,2.9311-24.2021,55.8844,55.8844,0,0,1,8.6256-18.7587,39.2336,39.2336,0,0,1,14.1528-12.0592,42.3372,42.3372,0,0,1,19.345-4.271q11.5566,0,20.0986,4.7734a41.7486,41.7486,0,0,1,14.1528,12.8967,57.2483,57.2483,0,0,1,8.2907,18.8424A99.0846,99.0846,0,0,1,1715,2005.086a55.8846,55.8846,0,0,1-8.6257,18.7587,39.2328,39.2328,0,0,1-14.1528,12.0592,42.7228,42.7228,0,0,1-19.5124,4.271q-16.5814,0-27.3007-9.7143Zm154.257-22.1085-11.7242.1674h-22.4434l-11.7243-.1674-9.7143,29.98a24.2722,24.2722,0,0,1-5.36.5025,26.8822,26.8822,0,0,1-6.532-.8375l-.335-.5024,38.3549-113.7248a45.15,45.15,0,0,1,7.5369-.5025,33.6083,33.6083,0,0,1,6.8671.5025l38.3549,113.7248a12.424,12.424,0,0,1-6.7,1.6749q-4.02,0-5.6945-1.34t-2.8473-5.36Zm-42.2071-10.8868,9.7143-.1675h19.2612q.1675,0,4.1035.0837t5.6109.0838l-10.5518-31.8229q-6.3645-19.5962-8.5419-27.9706h-.8375q-3.1824,12.3942-5.6946,19.9312Zm149.5674-37.5175a35.8305,35.8305,0,0,0-1.4237-9.9656,24.2766,24.2766,0,0,0-4.69-8.8768,23.3217,23.3217,0,0,0-8.3744-6.2809,29.3534,29.3534,0,0,0-12.3105-2.3448q-14.2365,0-22.0248,12.5616t-7.7881,35.6751q0,23.2809,8.04,35.7589t22.7784,12.4779q14.9066,0,30.1481-13.2317a15.1889,15.1889,0,0,1,7.0344,8.3745,53.4488,53.4488,0,0,1-17.3351,11.64,54.6451,54.6451,0,0,1-21.8573,4.4385q-11.2217,0-19.2612-4.6059a37.4833,37.4833,0,0,1-13.1479-12.6454,59.023,59.023,0,0,1-7.5369-18.675,101.7526,101.7526,0,0,1-2.4286-22.6947,91.6488,91.6488,0,0,1,3.35-26.1282,55.6289,55.6289,0,0,1,9.2119-18.675,37.9778,37.9778,0,0,1,30.65-14.99,47.7508,47.7508,0,0,1,16.414,2.68,41.3,41.3,0,0,1,12.5616,7.0346,31.3609,31.3609,0,0,1,8.04,10.0493,25.9235,25.9235,0,0,1,2.8473,11.7242q0,7.5369-7.202,7.537a24.1358,24.1358,0,0,1-5.6946-.8375Zm103.508,13.5666-.1675-12.3941v-37.35a28.172,28.172,0,0,1,6.03-.5025,39.0335,39.0335,0,0,1,6.6995.5025V2038.165a37.8957,37.8957,0,0,1-6.532.5025,32.26,32.26,0,0,1-6.1971-.5025v-41.2022l.1675-12.3941-10.2168.1675h-33.1628l-10.2169-.1675.1676,12.3941v41.2022a40.5572,40.5572,0,0,1-12.7291,0V1923.77a40.5572,40.5572,0,0,1,12.7291,0v37.35l-.1676,12.3941,10.2169-.1675h33.1628Zm46.3943,64.6506V1923.77a30.1628,30.1628,0,0,1,6.1133-.5025,38.46,38.46,0,0,1,6.6157.5025V2038.165a38.46,38.46,0,0,1-6.6157.5025A30.1628,30.1628,0,0,1,2056.9278,2038.165Zm124.9465-114.8972,1.0049.8375v114.06a51.69,51.69,0,0,1-7.872.5025,55.1565,55.1565,0,0,1-8.0395-.5025l-40.7-75.8723q-5.0247-9.3793-11.3892-23.1135h-.5024q1.0047,31.1529,1.0049,36.1776v62.8082a44.4552,44.4552,0,0,1-6.1972.5025,34.7048,34.7048,0,0,1-5.6945-.5025V1923.77a47.6964,47.6964,0,0,1,7.6207-.5025,54.4666,54.4666,0,0,1,7.9557.5025l40.7,75.8724q4.02,7.2019,11.7241,23.6159h.5025q-1.1726-21.4386-1.1724-38.1875v-53.4288q0-4.5222,1.34-6.4483t5.36-1.9262h4.3549Zm76.8774,57.2811H2284.21q5.36,0,7.7044,2.0937t2.3449,6.7832v43.38q-17.9212,7.37-39.8623,7.37-12.3941,0-21.606-4.9409a35.67,35.67,0,0,1-14.2365-13.4829q-9.7143-16.7488-9.7144-40.03,0-15.7438,4.1035-27.6356t10.9705-18.7587a44.3281,44.3281,0,0,1,32.4928-13.5666,65.2544,65.2544,0,0,1,20.4337,3.35,51.8524,51.8524,0,0,1,17.2513,9.2119,15.4676,15.4676,0,0,1-6.8671,9.8818,49.0866,49.0866,0,0,0-31.6554-10.8868q-14.4041,0-23.7833,11.5567t-9.3793,37.015q0,47.0643,34.3352,47.0643a78.4451,78.4451,0,0,0,24.9558-3.8522v-22.7784q0-7.37.1675-10.2168H2263.609q-5.8623,0-5.8621-6.03a20.0809,20.0809,0,0,1,1.0049-5.5272Z" transform="translate(-183.3741 -146.6993)"/></g></svg>