
		<svg xmlns="http://www.w3.org/2000/svg" xmlns:xlink="http://www.w3.org/1999/xlink" version="1.1" width="3146.6992665036673" height="2149.1442542787286">
			
			<g transform="scale(7.334963325183374) translate(10, 10)">
				<defs id="SvgjsDefs1940"/><g id="SvgjsG1941" featureKey="root" fill="#000"/><g id="SvgjsG1942" featureKey="text4" fill="#000" transform="matrix(9.600000000000001,0,0,9.600000000000001,10.39999542236328,-38.00000000000001)"><path d="M3.58 15.2 c-0.24 0.52 -0.5 1.04 -0.8 1.6 l11.54 0 l1.6 3.2 l-0.2 0 l-1.5 -3 l-1.78 0 l1.5 3 l-0.2 0 l-1.5 -3 l-7.58 0 l-1.48 3 l-0.22 0 c0.54 -1.1 1.04 -2.1 1.48 -3 l-1.76 0 c-0.46 0.92 -0.94 1.9 -1.48 3 l-0.2 0 l7.46 -15 l0.12 0.22 c-0.96 1.86 -1 1.94 -4.9 9.78 l1.76 0 c3.04 -6.08 3.12 -6.18 4 -8.02 l4.08 8.22 l-9.94 0 z M8.46 9.4 l-2.8 5.6 l5.58 0 z M9.44 7.42 l-0.88 1.76 l2.88 5.82 l1.78 0 z M18.12 13.5 l0 6.5 l-0.2 0 l0 -13.2 l5 0 c1.36 0 2.46 1.1 2.46 2.46 c0 1.08 -0.7 2 -1.68 2.32 c0.68 0.12 1.28 0.38 1.8 0.78 c0.9 -0.74 1.48 -1.86 1.48 -3.1 c0 -2.24 -1.82 -4.06 -4.06 -4.06 l-5 0 l0 -0.2 l5 0 c2.36 0 4.26 1.9 4.26 4.26 c0 1.3 -0.6 2.46 -1.52 3.22 c0.92 0.78 1.52 1.96 1.52 3.28 c0 2.36 -1.9 4.24 -4.26 4.24 l-3.2 0 l0 -6.5 l-1.6 0 z M18.12 11.7 l0 1.6 l4.8 0 c1.36 0 2.46 1.1 2.46 2.46 s-1.1 2.44 -2.46 2.44 l-3 0 l0 1.6 l3 0 c2.24 0 4.06 -1.8 4.06 -4.04 c0 -2.22 -1.78 -4.02 -3.96 -4.06 l-4.9 0 z M25.18 15.76 c0 -1.24 -1.02 -2.26 -2.26 -2.26 l-3 0 l0 4.5 l3 0 c1.24 0 2.26 -1 2.26 -2.24 z M25.18 9.26 c0 -1.24 -1.02 -2.26 -2.26 -2.26 l-3 0 l0 4.5 l3.08 0 c1.2 -0.06 2.18 -1.04 2.18 -2.24 z M18.12 7 l0 4.5 l1.6 0 l0 -4.5 l-1.6 0 z M29.38 7 l0 13 l-0.2 0 l0 -13.2 l10.3 0 l0 0.2 l-8.3 0 l0 4.5 l6.5 0 l0 0.2 l-6.5 0 l0 1.6 l6.5 0 l0 0.2 l-6.5 0 l0 6.5 l-0.2 0 l0 -13 l-1.6 0 z M29.18 5.199999999999999 l0 -0.2 l10.3 0 l0 0.2 l-10.3 0 z"/></g><g id="SvgjsG1943" featureKey="text1" fill="#000" transform="matrix(3.47498394638149,0,0,3.47498394638149,12.567510243332075,152.8641403938588)"><path d="M6.84 9.2 l3.68 14.8 l-3.52 0 l-0.9 -3.86 l-0.98 0 l-0.9 3.86 l-3.52 0 l3.66 -14.8 l2.48 0 z M6.56 19.56 l0.9 3.86 l2.3 0 l-3.36 -13.64 l-1.58 0 l-3.36 13.64 l2.3 0 l0.9 -3.86 l1.9 0 z M5.4 13.1 l0.58 0 l0.66 4.98 l-1.98 0 z M5.34 17.5 l0.62 0 l-0.28 -2.92 z M12.906 24 l0 -3.54 c0.02 -0.3 0.02 -0.66 0.02 -1.08 l0 -5.6 l0 -0.34 l0 -4.26 l3 0 l1.58 4.3 l0 -4.3 l3.24 0 l0 14.82 l-2.86 0 l-1.7 -4.72 l0 4.72 l-3.28 0 z M13.526000000000002 23.38 l2.04 0 l0 -5.86 l0.6 -0.1 l2.16 5.96 l1.82 0 l0 -13.6 l-2.02 0 l0 5.44 l-0.6 0.1 l-2.02 -5.54 l-1.96 0 l0 3.64 l0 0.36 l0 5.6 c0 0.42 0 0.8 -0.02 1.12 l0 2.88 z M25.752000000000002 24 l0 -7.14 l-2.2 -4.98 l0 -0.04 c-0.02 0 -0.02 -0.02 -0.02 -0.02 c-0.02 -0.04 -0.04 -0.1 -0.08 -0.16 l-1.12 -2.5 l3.58 0 l0.66 1.5 l0.06 0.16 l0.34 0.72 l0.04 0.12 l0.34 0.78 l0.34 -0.78 l1.12 -2.5 l3.72 0 l-1.08 2.06 l0 0.08 l-0.2 0.3 l-0.12 0.3 l0 0.02 l-2.12 4.98 l0 7.1 l-3.26 0 z M26.372000000000003 23.38 l2.02 0 l0 -6.6 l2.16 -5.12 c0.06 -0.12 0.1 -0.24 0.16 -0.34 l0 -0.02 l0.14 -0.18 l0 -0.06 l0.66 -1.28 l-2.3 0 l-0.94 2.14 l-0.9 2.08 l-0.92 -2.08 l-0.06 -0.12 l-0.32 -0.76 l-0.02 0 c0 -0.04 -0.02 -0.06 -0.04 -0.08 l0 -0.02 l-0.5 -1.16 l-2.24 0 l0.76 1.64 l0.06 0.12 c0 0.04 0.02 0.06 0.02 0.08 l0.02 0.02 l0 0.02 l2.24 5.06 l0 6.66 z M41.87800000000001 17.18 c0.24 0.58 0.36 1.24 0.36 1.94 s-0.12 1.34 -0.32 1.94 c-0.24 0.6 -0.56 1.14 -1.02 1.58 c-0.42 0.44 -0.9 0.78 -1.44 1.02 c-0.52 0.22 -1.1 0.34 -1.7 0.34 l-3.64 0 l0 -14.8 l3.06 0 c0.7 0 1.34 0.12 1.9 0.34 l0.04 0.02 c0.62 0.28 1.1 0.64 1.46 1.1 l0.02 0.04 c0.3 0.42 0.52 0.82 0.64 1.24 c0.14 0.46 0.22 0.9 0.22 1.38 c0 0.84 -0.2 1.6 -0.56 2.24 c0.04 0.04 0.08 0.08 0.12 0.14 c0.36 0.38 0.64 0.86 0.86 1.48 z M41.358000000000004 20.84 c0.2 -0.52 0.3 -1.1 0.3 -1.72 c0 -0.64 -0.1 -1.22 -0.32 -1.72 l0 -0.02 c-0.2 -0.54 -0.44 -0.96 -0.74 -1.28 c-0.1 -0.12 -0.2 -0.2 -0.28 -0.28 l-0.18 -0.18 l0.14 -0.2 c0.04 -0.06 0.06 -0.1 0.1 -0.14 l0.02 -0.04 c0.32 -0.54 0.48 -1.2 0.48 -1.94 c0 -0.42 -0.06 -0.8 -0.2 -1.2 c-0.1 -0.36 -0.28 -0.72 -0.56 -1.08 l0 -0.02 c-0.3 -0.38 -0.7 -0.7 -1.24 -0.92 l-0.02 -0.02 c-0.5 -0.2 -1.04 -0.3 -1.68 -0.3 l-2.48 0 l0 13.64 l3.06 0 c0.52 0 1.02 -0.1 1.48 -0.3 s0.88 -0.5 1.26 -0.88 c0.38 -0.4 0.68 -0.86 0.86 -1.4 z M38.47800000000001 14.34 c-0.2 0.22 -0.58 0.34 -1.1 0.34 l-0.62 0 l0 -2.74 l0.28 0.02 l0.48 0 c0.34 0 0.64 0.12 0.92 0.36 l0.02 0.02 c0.24 0.22 0.36 0.5 0.36 0.86 c0 0.54 -0.12 0.92 -0.34 1.14 z M37.33800000000001 12.54 l0 1.56 l0.04 0 c0.34 0 0.6 -0.06 0.7 -0.16 c0.1 -0.12 0.16 -0.38 0.16 -0.74 c0 -0.2 -0.06 -0.32 -0.18 -0.44 c-0.18 -0.16 -0.34 -0.22 -0.54 -0.22 l-0.18 0 z M38.998000000000005 17.42 c0.4 0.4 0.6 0.9 0.6 1.58 c0 0.84 -0.18 1.42 -0.54 1.76 l-0.02 0 c-0.4 0.36 -0.86 0.52 -1.42 0.52 l-0.86 0 l0 -4.46 l0.9 0 c0.42 0 0.86 0.2 1.32 0.6 l0.02 0 z M38.65800000000001 20.32 c0.14 -0.12 0.36 -0.46 0.36 -1.32 c0 -0.52 -0.12 -0.86 -0.42 -1.14 c-0.36 -0.3 -0.66 -0.44 -0.94 -0.44 l-0.32 0 l0 3.28 l0.28 0 c0.42 0 0.74 -0.12 1.04 -0.38 z M50.184000000000005 24.2 c-0.72 0 -1.44 -0.16 -2.18 -0.48 c-0.7 -0.3 -1.34 -0.72 -2 -1.34 l-0.02 -0.02 c-0.64 -0.62 -1.16 -1.44 -1.54 -2.46 c-0.38 -1 -0.56 -2.12 -0.56 -3.32 c0 -1.22 0.2 -2.34 0.58 -3.34 c0.4 -1.02 0.92 -1.84 1.6 -2.46 c0.6 -0.56 1.24 -1 1.94 -1.34 l0.04 0 c0.72 -0.32 1.42 -0.48 2.14 -0.48 s1.44 0.16 2.16 0.48 l0.02 0 c0.68 0.3 1.32 0.76 1.94 1.34 c0.68 0.62 1.18 1.42 1.6 2.44 c0.4 1.02 0.58 2.12 0.58 3.36 c0 0.94 -0.12 1.86 -0.36 2.72 l0 0.02 c-0.26 0.86 -0.6 1.6 -1.02 2.18 l-0.02 0.04 c-0.44 0.58 -0.92 1.06 -1.44 1.44 c-0.58 0.44 -1.16 0.76 -1.72 0.92 c-0.6 0.2 -1.18 0.3 -1.74 0.3 z M50.184000000000005 23.58 c0.5 0 1.02 -0.08 1.54 -0.26 c0.52 -0.16 1.04 -0.44 1.54 -0.82 c0.48 -0.36 0.92 -0.8 1.32 -1.34 l0.02 -0.02 c0.38 -0.54 0.68 -1.2 0.92 -2 c0.24 -0.82 0.34 -1.68 0.34 -2.56 c0 -1.16 -0.18 -2.18 -0.54 -3.12 c-0.38 -0.96 -0.84 -1.68 -1.44 -2.24 c-0.56 -0.52 -1.16 -0.94 -1.78 -1.22 c-0.64 -0.28 -1.28 -0.42 -1.92 -0.42 c-0.62 0 -1.26 0.14 -1.9 0.42 l-0.02 0 c-0.64 0.3 -1.22 0.7 -1.78 1.24 c-0.6 0.56 -1.08 1.28 -1.44 2.24 c-0.36 0.92 -0.54 1.96 -0.54 3.1 s0.16 2.18 0.52 3.1 c0.34 0.92 0.82 1.68 1.4 2.24 l0 0.02 c0.6 0.54 1.2 0.94 1.82 1.2 c0.66 0.3 1.3 0.44 1.94 0.44 z M50.184000000000005 21.46 c-0.5 0 -0.96 -0.1 -1.38 -0.34 c-0.42 -0.22 -0.82 -0.54 -1.18 -1 c-0.76 -0.96 -1.12 -2.1 -1.12 -3.54 c0 -0.72 0.08 -1.38 0.28 -1.98 c0.18 -0.58 0.46 -1.12 0.84 -1.58 c0.36 -0.46 0.76 -0.8 1.18 -1.02 c0.44 -0.22 0.88 -0.32 1.38 -0.32 c0.52 0 1 0.1 1.42 0.34 c0.42 0.22 0.82 0.56 1.16 1 c0.76 0.94 1.14 2.14 1.14 3.56 c0 1.44 -0.38 2.6 -1.14 3.56 c-0.36 0.44 -0.78 0.78 -1.2 1 s-0.88 0.32 -1.38 0.32 z M50.184000000000005 20.84 c0.4 0 0.76 -0.08 1.1 -0.24 c0.36 -0.18 0.68 -0.46 1 -0.86 c0.68 -0.84 1 -1.88 1 -3.16 s-0.34 -2.36 -1 -3.16 l0 -0.02 c-0.3 -0.38 -0.62 -0.66 -0.96 -0.84 c-0.36 -0.18 -0.72 -0.26 -1.14 -0.26 c-0.4 0 -0.76 0.08 -1.08 0.24 c-0.36 0.18 -0.7 0.48 -1 0.86 c-0.32 0.42 -0.58 0.88 -0.74 1.38 c-0.16 0.54 -0.24 1.14 -0.24 1.8 c0 1.28 0.32 2.32 0.98 3.14 c0.32 0.4 0.64 0.68 0.98 0.86 s0.7 0.26 1.1 0.26 z M68.05000000000001 14.12 c0.18 0.76 0.28 1.58 0.28 2.44 c0 1.06 -0.12 2.02 -0.36 2.86 c-0.22 0.86 -0.56 1.6 -0.96 2.18 l-0.04 0.04 c-0.44 0.56 -0.9 1.02 -1.42 1.38 l-0.04 0.02 l0 0.02 c-0.58 0.34 -1.12 0.6 -1.64 0.74 l-0.04 0.02 c-0.52 0.12 -1.04 0.18 -1.58 0.18 l-4.16 0 l0 -14.86 l3.44 0 c0.3 0 0.6 0.02 0.9 0.06 c0.36 0.02 0.74 0.08 1.16 0.2 c0.54 0.14 0.96 0.3 1.32 0.48 c0.46 0.24 0.88 0.54 1.28 0.9 c0.42 0.36 0.8 0.82 1.14 1.38 l0.02 0.04 c0.3 0.56 0.54 1.18 0.7 1.92 z M67.39000000000001 19.259999999999998 c0.2 -0.78 0.32 -1.68 0.32 -2.7 c0 -0.82 -0.08 -1.6 -0.26 -2.3 c-0.16 -0.68 -0.36 -1.26 -0.64 -1.76 l-0.02 -0.02 c-0.3 -0.5 -0.64 -0.92 -1.02 -1.24 c-0.36 -0.32 -0.74 -0.6 -1.14 -0.8 c-0.34 -0.18 -0.72 -0.32 -1.2 -0.44 c-0.38 -0.1 -0.74 -0.16 -1.04 -0.2 l-0.02 0 c-0.3 -0.02 -0.56 -0.04 -0.84 -0.04 l-2.84 0 l0 13.62 l3.56 0 c0.48 0 0.96 -0.06 1.44 -0.16 l0.02 -0.02 c0.46 -0.12 0.94 -0.34 1.46 -0.68 l0.02 0 c0.48 -0.34 0.9 -0.74 1.3 -1.26 l0 -0.02 c0.38 -0.52 0.68 -1.2 0.9 -1.98 z M61.57000000000001 11.94 c1.42 0 2.42 0.36 3.08 1.1 c0.68 0.74 1.02 1.92 1.02 3.5 c0 0.68 -0.06 1.3 -0.18 1.84 c-0.12 0.5 -0.26 0.94 -0.42 1.28 l-0.02 0 c-0.16 0.3 -0.34 0.54 -0.58 0.76 c-0.34 0.28 -0.56 0.42 -0.66 0.48 l-0.02 0 c-0.22 0.1 -0.44 0.18 -0.68 0.22 l-0.04 0.02 c-0.36 0.08 -0.52 0.1 -0.56 0.1 l-0.08 0 l-0.48 0 l-1.24 0 l0 -9.3 l0.86 0 z M64.89000000000001 18.240000000000002 c0.1 -0.5 0.16 -1.06 0.16 -1.7 c0 -1.42 -0.28 -2.46 -0.86 -3.1 c-0.54 -0.6 -1.4 -0.88 -2.62 -0.88 l-0.24 0 l0 8.08 l0.62 0 c0.14 0 0.34 0 0.4 -0.02 l0.16 0 c0.02 0 0.14 -0.02 0.42 -0.08 l0.04 -0.02 c0.2 -0.04 0.38 -0.1 0.56 -0.18 c0.06 -0.04 0.24 -0.14 0.52 -0.38 c0.18 -0.16 0.34 -0.36 0.46 -0.58 c0.14 -0.3 0.28 -0.68 0.38 -1.14 z M72.736 24 l0 -7.14 l-2.2 -4.98 l0 -0.04 c-0.02 0 -0.02 -0.02 -0.02 -0.02 c-0.02 -0.04 -0.04 -0.1 -0.08 -0.16 l-1.12 -2.5 l3.58 0 l0.66 1.5 l0.06 0.16 l0.34 0.72 l0.04 0.12 l0.34 0.78 l0.34 -0.78 l1.12 -2.5 l3.72 0 l-1.08 2.06 l0 0.08 l-0.2 0.3 l-0.12 0.3 l0 0.02 l-2.12 4.98 l0 7.1 l-3.26 0 z M73.35600000000001 23.38 l2.02 0 l0 -6.6 l2.16 -5.12 c0.06 -0.12 0.1 -0.24 0.16 -0.34 l0 -0.02 l0.14 -0.18 l0 -0.06 l0.66 -1.28 l-2.3 0 l-0.94 2.14 l-0.9 2.08 l-0.92 -2.08 l-0.06 -0.12 l-0.32 -0.76 l-0.02 0 c0 -0.04 -0.02 -0.06 -0.04 -0.08 l0 -0.02 l-0.5 -1.16 l-2.24 0 l0.76 1.64 l0.06 0.12 c0 0.04 0.02 0.06 0.02 0.08 l0.02 0.02 l0 0.02 l2.24 5.06 l0 6.66 z M81.10200000000002 24 l0 -14.84 l6.28 0 l0.44 3.36 l-3.46 0 l0 1.58 l3.12 0 l0 3.36 l-3.12 0 l0 6.54 l-3.26 0 z M81.72200000000001 23.38 l2.02 0 l0 -6.54 l3.12 0 l0 -2.14 l-3.12 0 l0 -2.8 l3.38 0 l-0.28 -2.12 l-5.12 0 l0 13.6 z M90.20800000000001 24 l0 -14.82 l3.26 0 l0 14.82 l-3.26 0 z M90.828 23.38 l2.02 0 l0 -13.6 l-2.02 0 l0 13.6 z M98.394 24.02 l0 -11.5 l-2.54 0 l0.44 -3.34 l7.46 0 l0.44 3.34 l-2.54 0 l0 11.5 l-3.26 0 z M99.01400000000001 23.4 l2.02 0 l0 -11.48 l2.46 0 l-0.28 -2.12 l-6.38 0 l-0.28 2.12 l2.46 0 l0 11.48 z"/></g><g id="SvgjsG1944" featureKey="text3" fill="#000" transform="matrix(1.1417142857142857,0,0,1.1417142857142857,84.73940460368566,240.46868745640347)"><path d="M2.1 10.34 l3.82 -0.06 q0.98 0 1.8 0.28 t1.39 0.83 t0.89 1.35 t0.32 1.82 q0 2.06 -1.2 3.18 t-3.2 1.12 l-2.42 0 l0 5.14 q-0.3 0.06 -0.76 0.06 t-0.76 -0.06 l0 -13.54 z M3.5 11.54 l0 6.06 q0.4 -0.02 1.01 -0.02 l1.45 0 q0.76 0 1.29 -0.25 t0.85 -0.67 t0.46 -0.98 t0.14 -1.18 q0 -0.56 -0.14 -1.1 t-0.47 -0.94 t-0.88 -0.65 t-1.37 -0.25 l-1.38 0 t-0.96 -0.02 z M14.580000000000002 21.94 l-0.02 0.76 q0.68 -0.04 1.24 -0.04 l5.48 0 q0 0.42 -0.04 0.64 q-0.14 0.7 -0.98 0.7 l-6.3 0 q-0.4 0 -0.63 -0.27 t-0.23 -0.73 l0 -12.54 l0.12 -0.12 l7.72 0 q0.04 0.24 0.04 0.63 t-0.1 0.69 l-6.32 0 l0.02 1.24 l0 3.54 l1.2 -0.02 l4.14 0 q0.06 0.36 0.06 0.67 t-0.06 0.65 l-4.14 0 q-0.76 0 -1.2 -0.02 l0 4.22 z M24.480000000000004 10.34 l4.04 -0.06 q2.06 0 3.2 1.04 t1.14 2.92 q0 1.34 -0.7 2.31 t-1.92 1.33 q0.82 0.26 1.34 1.62 l1.04 2.7 q0.22 0.56 0.44 0.91 t0.42 0.51 q-0.32 0.5 -1.06 0.5 q-0.42 0 -0.65 -0.22 t-0.45 -0.78 l-1.16 -3.04 q-0.34 -0.9 -0.81 -1.37 t-1.39 -0.47 l-2.08 0 l0 5.76 q-0.36 0.06 -0.78 0.06 q-0.44 0 -0.74 -0.06 l0 -13.54 z M25.880000000000003 11.54 l0 5.42 q0.42 -0.02 1.03 -0.03 t1.45 -0.01 t1.39 -0.22 t0.89 -0.58 t0.48 -0.85 t0.14 -1.03 q0 -0.56 -0.14 -1.05 t-0.48 -0.85 t-0.91 -0.57 t-1.43 -0.21 l-1.44 0 t-0.98 -0.02 z M35 22.74 q0.06 -0.74 0.7 -1.22 q2.04 1.38 4 1.38 q1.42 0 2.24 -0.6 t0.82 -1.64 q0 -1.54 -2.12 -2.48 l-2.34 -1.02 q-2.7 -1.16 -2.7 -3.36 q0 -0.76 0.32 -1.44 t0.89 -1.18 t1.37 -0.79 t1.78 -0.29 q1.94 0 3.96 0.96 q0 0.78 -0.62 1.28 q-0.98 -0.5 -1.81 -0.72 t-1.53 -0.22 q-0.64 0 -1.15 0.18 t-0.88 0.47 t-0.57 0.68 t-0.2 0.81 q0 0.88 0.51 1.37 t1.43 0.87 l2.26 0.98 q2.98 1.3 2.98 3.62 q0 1.74 -1.18 2.8 t-3.66 1.06 q-2.44 0 -4.5 -1.5 z M48.24 15.14 q-0.1 0.48 -0.13 0.99 t-0.03 1.03 q0 0.9 0.14 1.91 t0.54 1.88 t1.14 1.44 t1.94 0.57 q0.8 0 1.4 -0.28 t1.02 -0.73 t0.67 -1.05 t0.4 -1.25 t0.21 -1.29 t0.06 -1.2 q0 -0.88 -0.14 -1.9 t-0.55 -1.88 t-1.14 -1.43 t-1.93 -0.57 q-0.9 0 -1.54 0.33 t-1.05 0.86 t-0.64 1.2 t-0.37 1.37 z M48.58 23.08 q-2.12 -1.88 -2.12 -5.9 q0 -1.58 0.35 -2.89 t1.03 -2.24 t1.69 -1.44 t2.31 -0.51 q1.38 0 2.4 0.57 t1.69 1.54 t0.99 2.25 t0.32 2.7 q0 1.58 -0.35 2.89 t-1.03 2.24 t-1.69 1.44 t-2.33 0.51 q-1.98 0 -3.26 -1.16 z M69.72 10.28 l0.12 0.1 l0 13.62 q-0.38 0.06 -0.94 0.06 t-0.96 -0.06 l-4.86 -9.06 q-0.6 -1.12 -1.36 -2.76 l-0.06 0 q0.12 3.72 0.12 4.32 l0 7.5 q-0.42 0.06 -0.74 0.06 t-0.68 -0.06 l0 -13.66 q0.36 -0.06 0.91 -0.06 t0.95 0.06 l4.86 9.06 q0.48 0.86 1.4 2.82 l0.06 0 q-0.14 -2.56 -0.14 -4.56 l0 -6.38 q0 -0.54 0.16 -0.77 t0.64 -0.23 l0.52 0 z M80.42 20.44 l-1.4 0.02 l-2.68 0 l-1.4 -0.02 l-1.16 3.58 q-0.26 0.06 -0.64 0.06 t-0.78 -0.1 l-0.04 -0.06 l4.58 -13.58 q0.34 -0.06 0.9 -0.06 t0.82 0.06 l4.58 13.58 q-0.32 0.2 -0.8 0.2 t-0.68 -0.16 t-0.34 -0.64 z M75.38 19.14 l1.16 -0.02 l2.3 0 q0.02 0 0.49 0.01 t0.67 0.01 l-1.26 -3.8 q-0.76 -2.34 -1.02 -3.34 l-0.1 0 q-0.38 1.48 -0.68 2.38 z M88.96 22.64 l4.26 0 q0 0.44 -0.06 0.66 q-0.12 0.7 -0.98 0.7 l-5.6 0 q-0.38 0 -0.63 -0.27 t-0.25 -0.75 l0 -12.58 l0.12 -0.12 l0.6 0 q0.48 0 0.64 0.23 t0.16 0.77 l0 11.42 q0.9 -0.06 1.74 -0.06 z  M107.76 14.66 q0 -0.6 -0.17 -1.19 t-0.56 -1.06 t-1 -0.75 t-1.47 -0.28 q-1.7 0 -2.63 1.5 t-0.93 4.26 q0 2.78 0.96 4.27 t2.72 1.49 q1.78 0 3.6 -1.58 q0.62 0.36 0.84 1 q-0.84 0.86 -2.07 1.39 t-2.61 0.53 q-1.34 0 -2.3 -0.55 t-1.57 -1.51 t-0.9 -2.23 t-0.29 -2.71 q0 -1.78 0.4 -3.12 t1.1 -2.23 t1.64 -1.34 t2.02 -0.45 t1.96 0.32 t1.5 0.84 t0.96 1.2 t0.34 1.4 q0 0.9 -0.86 0.9 q-0.28 0 -0.68 -0.1 z M113.16000000000001 15.14 q-0.1 0.48 -0.13 0.99 t-0.03 1.03 q0 0.9 0.14 1.91 t0.54 1.88 t1.14 1.44 t1.94 0.57 q0.8 0 1.4 -0.28 t1.02 -0.73 t0.67 -1.05 t0.4 -1.25 t0.21 -1.29 t0.06 -1.2 q0 -0.88 -0.14 -1.9 t-0.55 -1.88 t-1.14 -1.43 t-1.93 -0.57 q-0.9 0 -1.54 0.33 t-1.05 0.86 t-0.64 1.2 t-0.37 1.37 z M113.50000000000001 23.08 q-2.12 -1.88 -2.12 -5.9 q0 -1.58 0.35 -2.89 t1.03 -2.24 t1.69 -1.44 t2.31 -0.51 q1.38 0 2.4 0.57 t1.69 1.54 t0.99 2.25 t0.32 2.7 q0 1.58 -0.35 2.89 t-1.03 2.24 t-1.69 1.44 t-2.33 0.51 q-1.98 0 -3.26 -1.16 z M131.92000000000002 20.44 l-1.4 0.02 l-2.68 0 l-1.4 -0.02 l-1.16 3.58 q-0.26 0.06 -0.64 0.06 t-0.78 -0.1 l-0.04 -0.06 l4.58 -13.58 q0.34 -0.06 0.9 -0.06 t0.82 0.06 l4.58 13.58 q-0.32 0.2 -0.8 0.2 t-0.68 -0.16 t-0.34 -0.64 z M126.88000000000001 19.14 l1.16 -0.02 l2.3 0 q0.02 0 0.49 0.01 t0.67 0.01 l-1.26 -3.8 q-0.76 -2.34 -1.02 -3.34 l-0.1 0 q-0.38 1.48 -0.68 2.38 z M144.74 14.66 q0 -0.6 -0.17 -1.19 t-0.56 -1.06 t-1 -0.75 t-1.47 -0.28 q-1.7 0 -2.63 1.5 t-0.93 4.26 q0 2.78 0.96 4.27 t2.72 1.49 q1.78 0 3.6 -1.58 q0.62 0.36 0.84 1 q-0.84 0.86 -2.07 1.39 t-2.61 0.53 q-1.34 0 -2.3 -0.55 t-1.57 -1.51 t-0.9 -2.23 t-0.29 -2.71 q0 -1.78 0.4 -3.12 t1.1 -2.23 t1.64 -1.34 t2.02 -0.45 t1.96 0.32 t1.5 0.84 t0.96 1.2 t0.34 1.4 q0 0.9 -0.86 0.9 q-0.28 0 -0.68 -0.1 z M157.1 16.28 l-0.02 -1.48 l0 -4.46 q0.26 -0.06 0.72 -0.06 t0.8 0.06 l0 13.66 q-0.34 0.06 -0.78 0.06 t-0.74 -0.06 l0 -4.92 l0.02 -1.48 l-1.22 0.02 l-3.96 0 l-1.22 -0.02 l0.02 1.48 l0 4.92 q-0.3 0.06 -0.76 0.06 t-0.76 -0.06 l0 -13.66 q0.3 -0.06 0.76 -0.06 t0.76 0.06 l0 4.46 l-0.02 1.48 l1.22 -0.02 l3.96 0 z M162.64 24 l0 -13.66 q0.28 -0.06 0.73 -0.06 t0.79 0.06 l0 13.66 q-0.34 0.06 -0.79 0.06 t-0.73 -0.06 z M177.55999999999997 10.28 l0.12 0.1 l0 13.62 q-0.38 0.06 -0.94 0.06 t-0.96 -0.06 l-4.86 -9.06 q-0.6 -1.12 -1.36 -2.76 l-0.06 0 q0.12 3.72 0.12 4.32 l0 7.5 q-0.42 0.06 -0.74 0.06 t-0.68 -0.06 l0 -13.66 q0.36 -0.06 0.91 -0.06 t0.95 0.06 l4.86 9.06 q0.48 0.86 1.4 2.82 l0.06 0 q-0.14 -2.56 -0.14 -4.56 l0 -6.38 q0 -0.54 0.16 -0.77 t0.64 -0.23 l0.52 0 z M186.73999999999995 17.12 l3.04 0 q0.64 0 0.92 0.25 t0.28 0.81 l0 5.18 q-2.14 0.88 -4.76 0.88 q-1.48 0 -2.58 -0.59 t-1.7 -1.61 q-1.16 -2 -1.16 -4.78 q0 -1.88 0.49 -3.3 t1.31 -2.24 q1.62 -1.62 3.88 -1.62 q1.22 0 2.44 0.4 t2.06 1.1 q-0.16 0.74 -0.82 1.18 q-1.62 -1.3 -3.78 -1.3 q-1.72 0 -2.84 1.38 t-1.12 4.42 q0 5.62 4.1 5.62 q1.6 0 2.98 -0.46 l0 -2.72 q0 -0.88 0.02 -1.22 l-2.18 0 q-0.7 0 -0.7 -0.72 q0 -0.26 0.12 -0.66 z"/></g>
			</g>
		</svg>
	